<svg width="32" height="32" viewBox="0 0 32 32" fill="none" xmlns="http://www.w3.org/2000/svg">
  <defs>
    <linearGradient id="bgGrad" x1="0%" y1="0%" x2="100%" y2="100%">
      <stop offset="0%" style="stop-color:#0d1117;stop-opacity:1" />
      <stop offset="100%" style="stop-color:#161b22;stop-opacity:1" />
    </linearGradient>
    <linearGradient id="blueGrad" x1="0%" y1="0%" x2="100%" y2="100%">
      <stop offset="0%" style="stop-color:#00f0ff;stop-opacity:1" />
      <stop offset="100%" style="stop-color:#0080ff;stop-opacity:1" />
    </linearGradient>
  </defs>
  
  <rect width="32" height="32" rx="6" fill="url(#bgGrad)"/>
  
  <!-- Angular shield shape -->
  <path d="M16 6L24 10L24 18L16 22L8 18L8 10Z" fill="none" stroke="url(#blueGrad)" stroke-width="1.5"/>
  
  <!-- MP monogram -->
  <g transform="translate(16, 16) scale(0.3)">
    <!-- M -->
    <path d="M-12 -5L-12 8M-12 -5L-6 3M-6 3L0 -5M0 -5L0 8" stroke="#00f0ff" stroke-width="2" stroke-linecap="round" fill="none"/>
    <!-- P -->
    <path d="M3 8L3 -5L9 -5Q12 -5 12 -1Q12 3 9 3L3 3" stroke="#00f0ff" stroke-width="2" stroke-linecap="round" fill="none"/>
  </g>
</svg>